<mxfile host="Electron" agent="Mozilla/5.0 (Windows NT 10.0; Win64; x64) AppleWebKit/537.36 (KHTML, like Gecko) draw.io/26.0.9 Chrome/128.0.6613.186 Electron/32.2.5 Safari/537.36" version="26.0.9">
  <diagram id="f106602c-feb2-e66a-4537-3a34d633f6aa" name="Page-1">
    <mxGraphModel dx="1887" dy="1120" grid="1" gridSize="10" guides="1" tooltips="1" connect="1" arrows="1" fold="1" page="1" pageScale="1" pageWidth="1169" pageHeight="827" background="none" math="0" shadow="0">
      <root>
        <mxCell id="0" />
        <mxCell id="1" parent="0" />
        <mxCell id="GuzJ8BqgIlNCJu6hI-l5-1007" value="" style="fillColor=#F6F6F6;strokeColor=none;shadow=0;gradientColor=none;fontSize=14;align=left;spacing=10;fontColor=#717171;9E9E9E;verticalAlign=top;spacingTop=-4;fontStyle=0;spacingLeft=40;html=1;" parent="1" vertex="1">
          <mxGeometry x="470" y="120" width="450" height="640" as="geometry" />
        </mxCell>
        <mxCell id="ToIlgoXpjmPbrCakTd57-25" value="" style="rounded=1;whiteSpace=wrap;html=1;" vertex="1" parent="1">
          <mxGeometry x="617.5" y="414" width="262.5" height="336" as="geometry" />
        </mxCell>
        <mxCell id="GuzJ8BqgIlNCJu6hI-l5-1066" value="browser" style="strokeColor=#dddddd;fillColor=#ffffff;shadow=1;strokeWidth=1;rounded=1;absoluteArcSize=1;arcSize=2;labelPosition=center;verticalLabelPosition=middle;align=center;verticalAlign=bottom;spacingLeft=0;fontColor=#999999;fontSize=12;whiteSpace=wrap;spacingBottom=2;html=1;" parent="1" vertex="1">
          <mxGeometry x="15.349999999999994" y="195" width="70" height="70" as="geometry" />
        </mxCell>
        <mxCell id="GuzJ8BqgIlNCJu6hI-l5-1067" value="" style="dashed=0;connectable=0;html=1;fillColor=#757575;strokeColor=none;shape=mxgraph.gcp2.users;part=1;" parent="GuzJ8BqgIlNCJu6hI-l5-1066" vertex="1">
          <mxGeometry x="0.5" width="50" height="31.5" relative="1" as="geometry">
            <mxPoint x="-25" y="19.25" as="offset" />
          </mxGeometry>
        </mxCell>
        <mxCell id="GuzJ8BqgIlNCJu6hI-l5-1013" style="edgeStyle=orthogonalEdgeStyle;rounded=0;html=1;dashed=0;labelBackgroundColor=none;startArrow=none;startFill=0;startSize=4;endArrow=blockThin;endFill=1;endSize=4;strokeColor=#4284F3;strokeWidth=2;fontSize=12;" parent="1" edge="1">
          <mxGeometry relative="1" as="geometry">
            <Array as="points" />
            <mxPoint x="85.35" y="240" as="sourcePoint" />
            <mxPoint x="315.35" y="240" as="targetPoint" />
          </mxGeometry>
        </mxCell>
        <mxCell id="Iei0aT7sCippaARnCkCd-1" value="curl&amp;nbsp;http://generator-orders.test/" style="text;html=1;align=center;verticalAlign=middle;whiteSpace=wrap;rounded=0;" parent="1" vertex="1">
          <mxGeometry x="94" y="207" width="206" height="30" as="geometry" />
        </mxCell>
        <mxCell id="ToIlgoXpjmPbrCakTd57-1" value="&lt;b&gt;Nginx&lt;/b&gt;&lt;div&gt;proxy&lt;/div&gt;" style="rounded=0;whiteSpace=wrap;html=1;" vertex="1" parent="1">
          <mxGeometry x="320" y="200" width="120" height="60" as="geometry" />
        </mxCell>
        <mxCell id="Iei0aT7sCippaARnCkCd-3" value="&lt;b&gt;api-orders-generator&lt;/b&gt;&lt;div&gt;&lt;font style=&quot;font-size: 10px;&quot;&gt;image: nikolayfrolov1986/api-orders-generator:2.5&lt;/font&gt;&lt;br&gt;&lt;/div&gt;" style="rounded=0;whiteSpace=wrap;html=1;" parent="1" vertex="1">
          <mxGeometry x="680" y="193" width="140" height="80" as="geometry" />
        </mxCell>
        <mxCell id="ToIlgoXpjmPbrCakTd57-2" value="&lt;b&gt;Ingress&lt;/b&gt;&lt;div&gt;&lt;div&gt;&lt;font style=&quot;font-size: 10px;&quot;&gt;host: generator-orders.test&lt;/font&gt;&lt;/div&gt;&lt;div&gt;&lt;font style=&quot;font-size: 10px;&quot;&gt;port: 80&lt;/font&gt;&lt;/div&gt;&lt;/div&gt;" style="rounded=0;whiteSpace=wrap;html=1;" vertex="1" parent="1">
          <mxGeometry x="500" y="200" width="130" height="60" as="geometry" />
        </mxCell>
        <mxCell id="ToIlgoXpjmPbrCakTd57-3" value="" style="endArrow=classic;html=1;rounded=0;" edge="1" parent="1">
          <mxGeometry width="50" height="50" relative="1" as="geometry">
            <mxPoint x="440" y="229.5" as="sourcePoint" />
            <mxPoint x="500" y="229.5" as="targetPoint" />
          </mxGeometry>
        </mxCell>
        <mxCell id="ToIlgoXpjmPbrCakTd57-4" value="" style="endArrow=classic;html=1;rounded=0;exitX=1;exitY=0.5;exitDx=0;exitDy=0;" edge="1" parent="1" source="ToIlgoXpjmPbrCakTd57-2">
          <mxGeometry width="50" height="50" relative="1" as="geometry">
            <mxPoint x="620" y="229.5" as="sourcePoint" />
            <mxPoint x="680" y="229.5" as="targetPoint" />
          </mxGeometry>
        </mxCell>
        <mxCell id="ToIlgoXpjmPbrCakTd57-5" value="" style="endArrow=classic;html=1;rounded=0;" edge="1" parent="1">
          <mxGeometry width="50" height="50" relative="1" as="geometry">
            <mxPoint x="749.57" y="273" as="sourcePoint" />
            <mxPoint x="749.57" y="323" as="targetPoint" />
          </mxGeometry>
        </mxCell>
        <mxCell id="ToIlgoXpjmPbrCakTd57-6" value="&lt;b&gt;Haproxy&lt;/b&gt;&lt;br&gt;&lt;div&gt;&lt;span style=&quot;font-size: 10px;&quot;&gt;Балансировщик&lt;/span&gt;&lt;/div&gt;&lt;div&gt;&lt;span style=&quot;font-size: 10px;&quot;&gt;port:5432&lt;/span&gt;&lt;/div&gt;" style="rounded=0;whiteSpace=wrap;html=1;" vertex="1" parent="1">
          <mxGeometry x="690" y="325" width="120" height="60" as="geometry" />
        </mxCell>
        <mxCell id="ToIlgoXpjmPbrCakTd57-7" value="" style="endArrow=classic;html=1;rounded=0;" edge="1" parent="1">
          <mxGeometry width="50" height="50" relative="1" as="geometry">
            <mxPoint x="700" y="434" as="sourcePoint" />
            <mxPoint x="700" y="484" as="targetPoint" />
          </mxGeometry>
        </mxCell>
        <mxCell id="ToIlgoXpjmPbrCakTd57-10" value="" style="endArrow=none;html=1;rounded=0;" edge="1" parent="1">
          <mxGeometry width="50" height="50" relative="1" as="geometry">
            <mxPoint x="749.57" y="435" as="sourcePoint" />
            <mxPoint x="749.57" y="385" as="targetPoint" />
          </mxGeometry>
        </mxCell>
        <mxCell id="ToIlgoXpjmPbrCakTd57-11" value="" style="endArrow=none;html=1;rounded=0;" edge="1" parent="1">
          <mxGeometry width="50" height="50" relative="1" as="geometry">
            <mxPoint x="700" y="435" as="sourcePoint" />
            <mxPoint x="800" y="435" as="targetPoint" />
          </mxGeometry>
        </mxCell>
        <mxCell id="ToIlgoXpjmPbrCakTd57-12" value="" style="endArrow=classic;html=1;rounded=0;" edge="1" parent="1">
          <mxGeometry width="50" height="50" relative="1" as="geometry">
            <mxPoint x="800" y="435" as="sourcePoint" />
            <mxPoint x="800" y="485" as="targetPoint" />
          </mxGeometry>
        </mxCell>
        <mxCell id="ToIlgoXpjmPbrCakTd57-16" value="&lt;b&gt;postgres-shards-0&lt;/b&gt;&lt;br&gt;&lt;div&gt;&lt;span style=&quot;font-size: 10px;&quot;&gt;port: 5432&lt;/span&gt;&lt;/div&gt;&lt;div&gt;&lt;span style=&quot;font-size: 10px;&quot;&gt;Table: orders&lt;/span&gt;&lt;/div&gt;" style="shape=cylinder3;whiteSpace=wrap;html=1;boundedLbl=1;backgroundOutline=1;size=15;" vertex="1" parent="1">
          <mxGeometry x="630" y="486" width="115" height="84" as="geometry" />
        </mxCell>
        <mxCell id="ToIlgoXpjmPbrCakTd57-17" value="&lt;b&gt;postgres-shards-1&lt;/b&gt;&lt;br&gt;&lt;div&gt;&lt;span style=&quot;font-size: 10px;&quot;&gt;port: 5432&lt;/span&gt;&lt;/div&gt;&lt;div&gt;&lt;span style=&quot;font-size: 10px;&quot;&gt;Table: orders&lt;/span&gt;&lt;span style=&quot;font-size: 10px;&quot;&gt;&lt;br&gt;&lt;/span&gt;&lt;/div&gt;" style="shape=cylinder3;whiteSpace=wrap;html=1;boundedLbl=1;backgroundOutline=1;size=15;" vertex="1" parent="1">
          <mxGeometry x="750" y="486" width="115" height="84" as="geometry" />
        </mxCell>
        <mxCell id="ToIlgoXpjmPbrCakTd57-18" value="" style="endArrow=none;html=1;rounded=0;" edge="1" parent="1">
          <mxGeometry width="50" height="50" relative="1" as="geometry">
            <mxPoint x="690" y="610" as="sourcePoint" />
            <mxPoint x="690" y="570" as="targetPoint" />
          </mxGeometry>
        </mxCell>
        <mxCell id="ToIlgoXpjmPbrCakTd57-19" value="" style="endArrow=none;html=1;rounded=0;" edge="1" parent="1">
          <mxGeometry width="50" height="50" relative="1" as="geometry">
            <mxPoint x="690.5" y="610" as="sourcePoint" />
            <mxPoint x="810.5" y="610" as="targetPoint" />
          </mxGeometry>
        </mxCell>
        <mxCell id="ToIlgoXpjmPbrCakTd57-20" value="" style="endArrow=none;html=1;rounded=0;" edge="1" parent="1">
          <mxGeometry width="50" height="50" relative="1" as="geometry">
            <mxPoint x="810" y="610" as="sourcePoint" />
            <mxPoint x="810" y="570" as="targetPoint" />
          </mxGeometry>
        </mxCell>
        <mxCell id="ToIlgoXpjmPbrCakTd57-21" value="" style="endArrow=classic;html=1;rounded=0;" edge="1" parent="1">
          <mxGeometry width="50" height="50" relative="1" as="geometry">
            <mxPoint x="750.0699999999999" y="610" as="sourcePoint" />
            <mxPoint x="750.5" y="650" as="targetPoint" />
          </mxGeometry>
        </mxCell>
        <mxCell id="ToIlgoXpjmPbrCakTd57-22" value="&lt;b&gt;postgres-replica&lt;/b&gt;&lt;br&gt;&lt;div&gt;&lt;span style=&quot;font-size: 10px;&quot;&gt;port: 5432&lt;/span&gt;&lt;/div&gt;&lt;div&gt;&lt;span style=&quot;font-size: 10px;&quot;&gt;Table: orders&lt;/span&gt;&lt;span style=&quot;font-size: 10px;&quot;&gt;&lt;br&gt;&lt;/span&gt;&lt;/div&gt;" style="shape=cylinder3;whiteSpace=wrap;html=1;boundedLbl=1;backgroundOutline=1;size=15;" vertex="1" parent="1">
          <mxGeometry x="692.5" y="650" width="115" height="84" as="geometry" />
        </mxCell>
        <mxCell id="ToIlgoXpjmPbrCakTd57-23" value="&lt;b&gt;Модульная схема взаимодействия&lt;/b&gt;" style="text;html=1;align=center;verticalAlign=middle;whiteSpace=wrap;rounded=0;" vertex="1" parent="1">
          <mxGeometry x="350" y="70" width="220" height="30" as="geometry" />
        </mxCell>
        <mxCell id="D7yy1BDR6vIkkXHeeeIg-1" value="" style="strokeColor=#dddddd;shadow=1;strokeWidth=1;rounded=1;absoluteArcSize=1;arcSize=2;" parent="1" vertex="1">
          <mxGeometry x="480" y="130" width="120" height="60" as="geometry" />
        </mxCell>
        <mxCell id="D7yy1BDR6vIkkXHeeeIg-2" value="Kubernetes" style="sketch=0;dashed=0;connectable=0;html=1;fillColor=#5184F3;strokeColor=none;shape=mxgraph.gcp2.kubernetes_logo;part=1;labelPosition=right;verticalLabelPosition=middle;align=left;verticalAlign=middle;spacingLeft=5;fontColor=#999999;fontSize=12;" parent="D7yy1BDR6vIkkXHeeeIg-1" vertex="1">
          <mxGeometry width="35" height="36.35" relative="1" as="geometry">
            <mxPoint x="10" y="11.325000000000001" as="offset" />
          </mxGeometry>
        </mxCell>
        <mxCell id="ToIlgoXpjmPbrCakTd57-26" value="&lt;b&gt;DB Postgres&lt;/b&gt;" style="text;html=1;align=center;verticalAlign=middle;whiteSpace=wrap;rounded=0;" vertex="1" parent="1">
          <mxGeometry x="622.5" y="425" width="70" height="30" as="geometry" />
        </mxCell>
        <mxCell id="ToIlgoXpjmPbrCakTd57-27" value="" style="endArrow=classic;html=1;rounded=0;dashed=1;" edge="1" parent="1">
          <mxGeometry width="50" height="50" relative="1" as="geometry">
            <mxPoint x="50" y="570" as="sourcePoint" />
            <mxPoint x="49.72" y="266" as="targetPoint" />
          </mxGeometry>
        </mxCell>
        <mxCell id="ToIlgoXpjmPbrCakTd57-28" value="" style="endArrow=none;dashed=1;html=1;dashPattern=1 3;strokeWidth=2;rounded=0;" edge="1" parent="1">
          <mxGeometry width="50" height="50" relative="1" as="geometry">
            <mxPoint x="50" y="570" as="sourcePoint" />
            <mxPoint x="617.5" y="570" as="targetPoint" />
          </mxGeometry>
        </mxCell>
        <mxCell id="ToIlgoXpjmPbrCakTd57-29" value="&lt;b&gt;return id orders&lt;/b&gt;" style="text;html=1;align=center;verticalAlign=middle;whiteSpace=wrap;rounded=0;" vertex="1" parent="1">
          <mxGeometry x="290" y="540" width="100" height="30" as="geometry" />
        </mxCell>
      </root>
    </mxGraphModel>
  </diagram>
</mxfile>
